<svg width="73" height="73" viewBox="0 0 73 73" fill="none" xmlns="http://www.w3.org/2000/svg">
<path d="M36.5 0C16.3405 0 0 16.3405 0 36.5C0 56.6595 16.3405 73 36.5 73C56.6595 73 73 56.6571 73 36.5C73 16.3429 56.6595 0 36.5 0ZM36.5 68.4375C18.8613 68.4375 4.5625 54.1387 4.5625 36.5C4.5625 18.8613 18.8613 4.5625 36.5 4.5625C54.1387 4.5625 68.4375 18.8613 68.4375 36.5C68.4375 54.1387 54.1387 68.4375 36.5 68.4375ZM50.1875 34.2188H38.7812V22.8125C38.7812 21.5532 37.7593 20.5312 36.5 20.5312C35.2407 20.5312 34.2188 21.5532 34.2188 22.8125V34.2188H22.8125C21.5532 34.2188 20.5312 35.2407 20.5312 36.5C20.5312 37.7593 21.5532 38.7812 22.8125 38.7812H34.2188V50.1875C34.2188 51.4468 35.2407 52.4688 36.5 52.4688C37.7593 52.4688 38.7812 51.4468 38.7812 50.1875V38.7812H50.1875C51.4468 38.7812 52.4688 37.7593 52.4688 36.5C52.4688 35.2407 51.4468 34.2188 50.1875 34.2188Z" fill="#244BDD"/>
</svg>
