<svg width="38" height="49" viewBox="0 0 38 49" fill="none" xmlns="http://www.w3.org/2000/svg">
<path d="M19 15.2977C17.3375 15.2977 14.725 13.3855 11.875 13.3855C8.07505 13.3855 4.75005 15.5367 2.85005 18.8831C-0.949953 25.5757 1.90005 35.6148 5.70005 41.1123C7.60005 43.7416 9.73755 46.8489 12.5875 46.6099C15.4375 46.6099 16.3875 44.6977 19.7125 44.6977C23.0375 44.6977 23.9875 46.6099 27.075 46.3708C30.1625 46.3708 32.0625 43.7416 33.725 40.8733C35.8625 37.766 36.8125 34.6587 36.8125 34.6587C36.8125 34.6587 31.1126 32.5074 30.875 25.8148C30.875 20.3172 35.3876 17.4489 35.625 17.4489C33.0126 13.6245 28.975 13.1465 27.5501 13.1465C23.75 12.9074 20.6625 15.2977 19 15.2977ZM25.1751 9.5611C26.6 7.64891 27.7875 5.01964 27.5501 2.62939C25.4125 2.62939 22.5625 4.06354 21.1375 5.97574C19.7125 7.64891 18.525 10.2782 18.7625 12.9074C21.1375 12.9074 23.75 11.4733 25.1751 9.5611Z" fill="#333333"/>
</svg>
