<svg width="73" height="73" viewBox="0 0 73 73" fill="none" xmlns="http://www.w3.org/2000/svg">
<path d="M62.3094 10.6905C55.4154 3.79671 46.2495 0 36.5 0C26.7504 0 17.5843 3.79671 10.6905 10.6905C3.79657 17.5844 0 26.7505 0 36.5C0 46.2495 3.79657 55.4154 10.6905 62.3094C17.5844 69.2033 26.7504 73 36.5 73C46.2495 73 55.4154 69.2033 62.3094 62.3094C69.2033 55.4154 73 46.2495 73 36.5C73 26.7505 69.2033 17.5846 62.3094 10.6905ZM36.5 68.7227C18.7323 68.7227 4.27734 54.2677 4.27734 36.5C4.27734 18.7323 18.7323 4.27734 36.5 4.27734C54.2677 4.27734 68.7227 18.7323 68.7227 36.5C68.7227 54.2677 54.2677 68.7227 36.5 68.7227Z" fill="#E3603B"/>
<path d="M36.0001 19C34.3636 19 33.0371 20.3265 33.0371 21.963V41.0434C33.0371 42.6798 34.3636 44.0064 36.0001 44.0064C37.6365 44.0064 38.963 42.6798 38.963 41.0434V21.963C38.963 20.3265 37.6365 19 36.0001 19Z" fill="#E3603B"/>
<path d="M36 55.6343C38.2091 55.6343 40 53.8434 40 51.6343C40 49.4251 38.2091 47.6343 36 47.6343C33.7909 47.6343 32 49.4251 32 51.6343C32 53.8434 33.7909 55.6343 36 55.6343Z" fill="#E3603B"/>
</svg>
