<svg width="73" height="73" viewBox="0 0 73 73" fill="none" xmlns="http://www.w3.org/2000/svg">
<path d="M62.3094 10.6905C55.4154 3.79671 46.2495 0 36.5 0C26.7504 0 17.5843 3.79671 10.6905 10.6905C3.79657 17.5844 0 26.7505 0 36.5C0 46.2495 3.79657 55.4154 10.6905 62.3094C17.5844 69.2033 26.7504 73 36.5 73C46.2495 73 55.4154 69.2033 62.3094 62.3094C69.2033 55.4154 73 46.2495 73 36.5C73 26.7505 69.2033 17.5846 62.3094 10.6905ZM36.5 68.7227C18.7323 68.7227 4.27734 54.2677 4.27734 36.5C4.27734 18.7323 18.7323 4.27734 36.5 4.27734C54.2677 4.27734 68.7227 18.7323 68.7227 36.5C68.7227 54.2677 54.2677 68.7227 36.5 68.7227Z" fill="#244BDD"/>
<path d="M53.938 24.7885C53.1029 23.9536 51.7487 23.9536 50.9137 24.7887L32.0279 43.6744L22.0864 33.7329C21.2513 32.8978 19.8971 32.8978 19.0618 33.7329C18.2266 34.568 18.2266 35.9222 19.0618 36.7574L30.5156 48.2111C30.9332 48.6287 31.4805 48.8375 32.0278 48.8375C32.575 48.8375 33.1225 48.6286 33.5399 48.2111L53.938 27.813C54.7732 26.978 54.7732 25.6238 53.938 24.7885Z" fill="#244BDD"/>
</svg>
