<svg width="19" height="19" viewBox="0 0 19 19" fill="none" xmlns="http://www.w3.org/2000/svg">
<path d="M16.0312 8.90615H4.18623L8.72189 4.58603C8.95939 4.35981 8.96859 3.98396 8.74237 3.74646C8.51645 3.50926 8.14061 3.49976 7.90281 3.72598L2.72294 8.66004C2.4988 8.88448 2.375 9.18254 2.375 9.4999C2.375 9.81696 2.4988 10.1153 2.73333 10.3496L7.90311 15.2735C8.018 15.3831 8.16525 15.4374 8.3125 15.4374C8.46925 15.4374 8.626 15.3756 8.74267 15.253C8.96889 15.0155 8.95969 14.64 8.72219 14.4138L4.16753 10.0936H16.0312C16.359 10.0936 16.625 9.82765 16.625 9.4999C16.625 9.17215 16.359 8.90615 16.0312 8.90615Z" fill="#244BDD"/>
</svg>
