<svg width="74" height="74" viewBox="0 0 74 74" fill="none" xmlns="http://www.w3.org/2000/svg">
<path d="M68.8873 5.11674C62.065 -1.70562 50.9632 -1.70293 44.1395 5.11674L31.7655 17.4907C30.7142 18.542 30.7142 20.2463 31.7655 21.2976C32.8169 22.349 34.5211 22.349 35.5725 21.2976L47.9464 8.92369C50.2228 6.64867 53.2651 5.39405 56.5121 5.39405C59.7603 5.39405 62.8027 6.64867 65.079 8.92504C67.3554 11.2014 68.61 14.2437 68.61 17.492C68.61 20.739 67.3554 23.7813 65.079 26.0577L48.8995 42.2413C44.1745 46.9636 36.4892 46.9636 31.7642 42.2413C30.7128 41.1899 29.0086 41.1899 27.9572 42.2413C26.9059 43.2926 26.9059 44.9982 27.9572 46.0482C31.3684 49.4594 35.8498 51.165 40.3312 51.165C44.8125 51.165 49.2939 49.4594 52.7051 46.0482L68.8873 29.866C72.1814 26.5733 73.996 22.178 73.996 17.492C73.996 12.8047 72.1814 8.4108 68.8873 5.11674Z" fill="#244BDD"/>
<path d="M36.5242 54.6139L26.0538 65.0843C23.7774 67.3607 20.7351 68.6153 17.4868 68.6153C14.2398 68.6153 11.1962 67.3607 8.9198 65.0843C4.19611 60.3606 4.19611 52.674 8.9198 47.9504L24.1503 32.7198C26.4267 30.4448 29.469 29.1902 32.7173 29.1902C35.9642 29.1902 39.0066 30.4448 41.2829 32.7198C42.3343 33.7712 44.0385 33.7712 45.0899 32.7198C46.1412 31.6685 46.1412 29.9643 45.0899 28.9129C38.2689 22.0919 27.1671 22.0905 20.342 28.9129L5.1115 44.1447C1.81878 47.4375 0.00415039 51.8327 0.00415039 56.5187C0.00415039 61.2033 1.81878 65.5986 5.11284 68.8913C8.40556 72.1854 12.8008 74 17.4854 74C22.1714 74 26.5667 72.1854 29.8594 68.8913L40.3299 58.4208C41.3812 57.3695 41.3812 55.6652 40.3299 54.6139C39.2785 53.5625 37.5756 53.5625 36.5242 54.6139Z" fill="#244BDD"/>
</svg>
