<svg width="55" height="65" viewBox="0 0 55 65" fill="none" xmlns="http://www.w3.org/2000/svg">
<path d="M47.8125 48.75C47.065 48.75 46.4583 49.3567 46.4583 50.1042V59.5834C46.4583 61.2626 42.515 62.2917 39.6875 62.2917H9.8958C7.0683 62.2917 3.12501 61.2625 3.12501 59.5833V5.41671C3.12501 3.7375 7.0683 2.70842 9.8958 2.70842H39.6875C42.515 2.70842 46.4583 3.73763 46.4583 5.41671V10.243C46.4583 10.9905 47.065 11.5972 47.8125 11.5972C48.56 11.5972 49.1667 10.9905 49.1667 10.243V5.41671C49.1667 1.44358 43.4981 0 39.6875 0H9.8958C6.08517 0 0.416718 1.44358 0.416718 5.41671V59.5834C0.416718 63.5565 6.0853 65.0001 9.89593 65.0001H39.6875C43.4981 65.0001 49.1667 63.5565 49.1667 59.5834V50.1042C49.1667 49.3567 48.56 48.75 47.8125 48.75Z" fill="#333333"/>
<path d="M42.3958 10.8337C43.1433 10.8337 43.75 10.227 43.75 9.47949V6.7712C43.75 6.0237 43.1433 5.41699 42.3958 5.41699H7.18749C6.43999 5.41699 5.83328 6.0237 5.83328 6.7712V52.8129C5.83328 53.5604 6.43999 54.1671 7.18749 54.1671H42.3958C43.1433 54.1671 43.75 53.5604 43.75 52.8129V44.6879C43.75 43.9404 43.1433 43.3337 42.3958 43.3337C41.6483 43.3337 41.0416 43.9404 41.0416 44.6879V51.4587H8.54157V8.12541H41.0416V9.47962C41.0417 10.2271 41.6483 10.8337 42.3958 10.8337Z" fill="#333333"/>
<path d="M53.2292 24.3753C52.4817 24.3753 51.875 24.982 51.875 25.7295V23.0212C51.875 20.8951 51.1464 18.9532 49.9602 17.3717L51.4769 15.855C52.005 15.3268 52.005 14.4682 51.4769 13.9401C50.9488 13.412 50.0902 13.412 49.5621 13.9401L48.0454 15.4568C46.4636 14.2706 44.5218 13.542 42.3958 13.542C40.2697 13.542 38.3252 14.2706 36.7435 15.4568L35.2268 13.9401C34.6987 13.412 33.8401 13.412 33.3119 13.9401C32.7838 14.4682 32.7838 15.3268 33.3119 15.855L34.8286 17.3717C33.6451 18.9534 32.9166 20.8979 32.9166 23.0212V25.7295C32.9166 24.982 32.3099 24.3753 31.5624 24.3753C30.8149 24.3753 30.2082 24.982 30.2082 25.7295V36.5628C30.2082 37.3103 30.8149 37.917 31.5624 37.917C32.3099 37.917 32.9166 37.3103 32.9166 36.5628C32.9166 38.3259 34.0514 39.8154 35.6249 40.3761V44.6878C35.6249 45.4353 36.2316 46.042 36.9791 46.042C37.7266 46.042 38.3333 45.4353 38.3333 44.6878V40.6253H46.4583V44.6878C46.4583 45.4353 47.065 46.042 47.8125 46.042C48.56 46.042 49.1667 45.4353 49.1667 44.6878V40.3761C50.7402 39.8154 51.875 38.3259 51.875 36.5628C51.875 37.3103 52.4817 37.917 53.2292 37.917C53.9767 37.917 54.5834 37.3103 54.5834 36.5628V25.7295C54.5833 24.982 53.9767 24.3753 53.2292 24.3753ZM42.3958 16.2503C45.6647 16.2503 48.4002 18.5822 49.0285 21.667H35.7605C36.3914 18.5822 39.1269 16.2503 42.3958 16.2503ZM49.1667 36.5628C49.1667 37.3103 48.56 37.917 47.8125 37.917H36.9792C36.2317 37.917 35.625 37.3103 35.625 36.5628V24.3753H49.1667V36.5628Z" fill="#333333"/>
<path d="M20.7292 56.875C19.9817 56.875 19.375 57.4817 19.375 58.2292C19.375 58.9767 19.9817 59.5834 20.7292 59.5834H28.8542C29.6017 59.5834 30.2084 58.9767 30.2084 58.2292C30.2084 57.4817 29.6017 56.875 28.8542 56.875H20.7292Z" fill="#333333"/>
</svg>
