<svg width="48" height="62" viewBox="0 0 48 62" fill="none" xmlns="http://www.w3.org/2000/svg">
<path d="M22.7083 5.16699H17.5416C16.8286 5.16699 16.2499 5.7457 16.2499 6.4587C16.2499 7.1717 16.8287 7.75029 17.5417 7.75029H22.7084C23.4213 7.75029 24 7.17158 24 6.45858C24 5.74558 23.4213 5.16699 22.7083 5.16699Z" fill="#333333"/>
<path d="M45.9583 33.5833C45.2453 33.5833 44.6666 34.162 44.6666 34.875V32.2917C44.6666 30.2637 43.9716 28.4115 42.8401 26.9029L44.2868 25.4562C44.7906 24.9525 44.7906 24.1335 44.2868 23.6298C43.7831 23.126 42.9641 23.126 42.4604 23.6298L41.0137 25.0765C39.5052 23.945 37.653 23.25 35.625 23.25C33.597 23.25 31.7422 23.945 30.2335 25.0765L28.7868 23.6298C28.2831 23.126 27.4641 23.126 26.9604 23.6298C26.4566 24.1335 26.4566 24.9525 26.9604 25.4562L28.4071 26.9029C27.2781 28.4116 26.5833 30.2664 26.5833 32.2917V34.875C26.5833 34.162 26.0046 33.5833 25.2916 33.5833C24.5786 33.5833 24 34.162 24 34.875V45.2083C24 45.9213 24.5787 46.5 25.2917 46.5C26.0047 46.5 26.5834 45.9213 26.5834 45.2083C26.5834 46.89 27.6659 48.3108 29.1667 48.8456V52.9583C29.1667 53.6713 29.7454 54.25 30.4584 54.25C31.1714 54.25 31.75 53.6713 31.75 52.9583V49.0833H39.5V52.9583C39.5 53.6713 40.0787 54.25 40.7917 54.25C41.5047 54.25 42.0834 53.6713 42.0834 52.9583V48.8456C43.5844 48.3108 44.6667 46.89 44.6667 45.2083C44.6667 45.9213 45.2454 46.5 45.9584 46.5C46.6714 46.5 47.2501 45.9213 47.2501 45.2083V34.875C47.25 34.162 46.6713 33.5833 45.9583 33.5833ZM35.625 25.8333C38.7457 25.8333 41.3522 28.0575 41.9515 31H29.2958C29.8977 28.0575 32.5043 25.8333 35.625 25.8333ZM42.0833 45.2083C42.0833 45.9213 41.502 46.5 40.7916 46.5H30.4583C29.7478 46.5 29.1666 45.9213 29.1666 45.2083V33.5833H42.0833V45.2083Z" fill="#333333"/>
<path d="M37.8235 56.7275C37.2939 56.2522 36.4775 56.3012 35.9997 56.836C33.7057 59.4167 27.3739 59.4167 25.2917 59.4167H14.9584C7.02762 59.4167 3.33341 57.7737 3.33341 54.25H25.2917C26.0047 54.25 26.5834 53.6713 26.5834 52.9583C26.5834 52.2453 26.0047 51.6666 25.2917 51.6666H3.33329V12.9166H36.9166V19.6565C36.9166 20.3695 37.4953 20.9482 38.2083 20.9482C38.9213 20.9482 39.5 20.3695 39.5 19.6565V9.04171C39.5 2.79521 32.3622 0 25.2917 0H14.9584C7.88775 0 0.75 2.79521 0.75 9.04171V54.25C0.75 62 11.445 62 14.9583 62H25.2916C29.4016 62 35.1806 61.6435 37.9318 58.5513C38.4072 58.019 38.3582 57.2028 37.8235 56.7275ZM3.33329 9.04171C3.33329 3.94221 10.6415 2.58341 14.9583 2.58341H25.2916C29.6083 2.58341 36.9166 3.94221 36.9166 9.04171V10.3334H3.33329V9.04171Z" fill="#333333"/>
</svg>
