<svg width="14" height="14" viewBox="0 0 14 14" fill="none" xmlns="http://www.w3.org/2000/svg">
<path d="M13.5989 6.83872C13.3761 6.83872 13.1978 7.01699 13.1978 7.23982V10.8884C13.1978 11.8807 12.3896 12.6859 11.4003 12.6859H2.59975C1.60739 12.6859 0.802207 11.8778 0.802207 10.8884V7.1804C0.802207 6.95757 0.623939 6.7793 0.401104 6.7793C0.178268 6.7793 0 6.95757 0 7.1804V10.8884C0 12.3234 1.16766 13.4881 2.59975 13.4881H11.4003C12.8353 13.4881 14 12.3205 14 10.8884V7.23982C14 7.01996 13.8217 6.83872 13.5989 6.83872Z" fill="white"/>
<path d="M6.71773 10.3026C6.79498 10.3798 6.89897 10.4214 6.99999 10.4214C7.10101 10.4214 7.205 10.3828 7.28225 10.3026L9.83149 7.75336C9.98896 7.59589 9.98896 7.34334 9.83149 7.18587C9.67402 7.0284 9.42147 7.0284 9.264 7.18587L7.4011 9.05174V0.913799C7.4011 0.690964 7.22283 0.512695 6.99999 0.512695C6.77716 0.512695 6.59889 0.690964 6.59889 0.913799V9.05174L4.73301 7.18587C4.57554 7.0284 4.323 7.0284 4.16553 7.18587C4.00806 7.34334 4.00806 7.59589 4.16553 7.75336L6.71773 10.3026Z" fill="white"/>
</svg>
