<svg width="13" height="13" viewBox="0 0 13 13" fill="none" xmlns="http://www.w3.org/2000/svg">
<g clip-path="url(#clip0)">
<path d="M6.50003 6.45907C6.24722 6.45907 6.04224 6.25409 6.04224 6.00128V0.457792C6.04224 0.204981 6.24722 0 6.50003 0C6.75284 0 6.95782 0.204981 6.95782 0.457792V6.00128C6.95782 6.25409 6.75287 6.45907 6.50003 6.45907Z" fill="white"/>
<path d="M6.50003 13.0005C3.28336 13.0005 0.666443 10.3835 0.666443 7.16692C0.666443 5.88057 1.07695 4.66075 1.85366 3.63937C2.60499 2.65131 3.67153 1.91584 4.85678 1.5685C5.0994 1.49712 5.35372 1.63644 5.42484 1.87903C5.49593 2.12166 5.3569 2.37597 5.11427 2.44709C3.03451 3.05665 1.58199 4.99747 1.58199 7.16692C1.58199 9.8787 3.78818 12.0849 6.49999 12.0849C9.21177 12.0849 11.418 9.8787 11.418 7.16692C11.418 4.99747 9.96547 3.05665 7.88571 2.44709C7.64308 2.37601 7.50406 2.12166 7.57518 1.87903C7.64623 1.6364 7.90058 1.49719 8.14324 1.5685C9.32852 1.91584 10.395 2.65131 11.1464 3.63937C11.9231 4.66079 12.3336 5.88057 12.3336 7.16692C12.3336 10.3835 9.71669 13.0005 6.50003 13.0005Z" fill="white"/>
</g>
<defs>
<clipPath id="clip0">
<rect width="13" height="13" fill="white"/>
</clipPath>
</defs>
</svg>
