<svg width="19" height="25" viewBox="0 0 19 25" fill="none" xmlns="http://www.w3.org/2000/svg">
<path d="M9.50001 7.80472C8.66876 7.80472 7.36251 6.82911 5.93751 6.82911C4.03751 6.82911 2.37501 7.92667 1.42501 9.63399C-0.474988 13.0486 0.950012 18.1706 2.85001 20.9755C3.80001 22.3169 4.86876 23.9023 6.29376 23.7803C7.71876 23.7803 8.19376 22.8047 9.85626 22.8047C11.5188 22.8047 11.9938 23.7803 13.5375 23.6584C15.0813 23.6584 16.0313 22.3169 16.8625 20.8535C17.9313 19.2681 18.4063 17.6828 18.4063 17.6828C18.4063 17.6828 15.5563 16.5852 15.4375 13.1706C15.4375 10.3657 17.6938 8.90228 17.8125 8.90228C16.5063 6.95106 14.4875 6.70716 13.775 6.70716C11.875 6.58521 10.3313 7.80472 9.50001 7.80472ZM12.5875 4.87789C13.3 3.90228 13.8938 2.56082 13.775 1.34131C12.7063 1.34131 11.2813 2.07302 10.5688 3.04863C9.85626 3.90228 9.26251 5.24375 9.38126 6.58521C10.5688 6.58521 11.875 5.8535 12.5875 4.87789Z" fill="#333333"/>
</svg>
