<svg width="1713" height="1410" viewBox="0 0 1713 1410" fill="none" xmlns="http://www.w3.org/2000/svg">
<path fill-rule="evenodd" clip-rule="evenodd" d="M1093 591C1141.6 591 1181 551.601 1181 503C1181 454.399 1141.6 415 1093 415C1044.4 415 1005 454.399 1005 503C1005 551.601 1044.4 591 1093 591ZM1093 602C1147.68 602 1192 557.676 1192 503C1192 448.324 1147.68 404 1093 404C1038.32 404 994 448.324 994 503C994 557.676 1038.32 602 1093 602Z" fill="white"/>
<path fill-rule="evenodd" clip-rule="evenodd" d="M293.5 561C441.236 561 561 441.236 561 293.5C561 145.764 441.236 26 293.5 26C145.764 26 26 145.764 26 293.5C26 441.236 145.764 561 293.5 561ZM293.5 587C455.596 587 587 455.596 587 293.5C587 131.404 455.596 0 293.5 0C131.404 0 0 131.404 0 293.5C0 455.596 131.404 587 293.5 587Z" fill="white"/>
<path d="M372 934C372 958.301 352.301 978 328 978C303.699 978 284 958.301 284 934C284 909.699 303.699 890 328 890C352.301 890 372 909.699 372 934Z" fill="white"/>
<path d="M994 1165.5C994 1178.48 983.479 1189 970.5 1189C957.521 1189 947 1178.48 947 1165.5C947 1152.52 957.521 1142 970.5 1142C983.479 1142 994 1152.52 994 1165.5Z" fill="white"/>
<path d="M878 428C878 445.121 864.121 459 847 459C829.879 459 816 445.121 816 428C816 410.879 829.879 397 847 397C864.121 397 878 410.879 878 428Z" fill="white"/>
<path fill-rule="evenodd" clip-rule="evenodd" d="M567 867L175 1212L173.018 1209.75L565.018 864.748L567 867Z" fill="white"/>
<path fill-rule="evenodd" clip-rule="evenodd" d="M1402 602L1010 947L1008.02 944.748L1400.02 599.748L1402 602Z" fill="white"/>
<path fill-rule="evenodd" clip-rule="evenodd" d="M284.5 1399C388.053 1399 472 1315.05 472 1211.5C472 1107.95 388.053 1024 284.5 1024C180.947 1024 97 1107.95 97 1211.5C97 1315.05 180.947 1399 284.5 1399ZM284.5 1410C394.129 1410 483 1321.13 483 1211.5C483 1101.87 394.129 1013 284.5 1013C174.871 1013 86 1101.87 86 1211.5C86 1321.13 174.871 1410 284.5 1410Z" fill="white"/>
<path fill-rule="evenodd" clip-rule="evenodd" d="M1484 1163C1604.4 1163 1702 1065.4 1702 945C1702 824.602 1604.4 727 1484 727C1363.6 727 1266 824.602 1266 945C1266 1065.4 1363.6 1163 1484 1163ZM1484 1174C1610.47 1174 1713 1071.47 1713 945C1713 818.527 1610.47 716 1484 716C1357.53 716 1255 818.527 1255 945C1255 1071.47 1357.53 1174 1484 1174Z" fill="white"/>
</svg>
