<?xml version="1.0" standalone="no"?>
<!DOCTYPE svg PUBLIC "-//W3C//DTD SVG 20010904//EN"
 "http://www.w3.org/TR/2001/REC-SVG-20010904/DTD/svg10.dtd">
<svg version="1.0" xmlns="http://www.w3.org/2000/svg"
 width="1024.000000pt" height="1024.000000pt" viewBox="0 0 1024.000000 1024.000000"
 preserveAspectRatio="xMidYMid meet">
<metadata>
Created by potrace 1.11, written by Peter Selinger 2001-2013
</metadata>
<g transform="translate(0.000000,1024.000000) scale(0.100000,-0.100000)"
fill="#000000" stroke="none">
<path d="M5059 10236 c-2 -2 -42 -7 -89 -10 -148 -13 -320 -37 -435 -61 -5 -2
-37 -8 -70 -15 -33 -7 -100 -23 -150 -37 -49 -13 -97 -26 -105 -28 -100 -25
-308 -99 -425 -151 -22 -10 -44 -18 -50 -20 -5 -1 -64 -28 -130 -60 -66 -32
-123 -57 -127 -56 -13 3 -9 -32 6 -53 7 -11 62 -114 121 -230 59 -115 129
-250 155 -300 45 -86 82 -157 313 -605 55 -107 105 -198 111 -202 6 -4 7 -8 3
-8 -5 0 0 -15 11 -32 11 -18 59 -109 107 -203 48 -93 114 -219 145 -280 75
-143 212 -408 265 -512 24 -46 48 -90 55 -98 7 -8 9 -15 5 -15 -4 0 0 -10 8
-23 8 -13 50 -90 92 -173 43 -82 116 -223 163 -314 47 -91 111 -214 141 -275
31 -60 58 -112 61 -115 3 -3 33 -59 66 -125 82 -160 225 -436 399 -770 29 -55
78 -152 111 -215 32 -63 61 -117 64 -120 3 -3 34 -63 70 -135 35 -71 68 -131
72 -133 4 -2 8 -11 8 -21 0 -9 4 -21 9 -26 5 -6 46 -82 91 -170 45 -88 87
-166 92 -172 6 -7 7 -13 4 -13 -4 0 1 -12 12 -28 10 -15 39 -67 64 -117 25
-49 72 -142 105 -205 33 -63 97 -187 143 -275 182 -352 213 -410 222 -422 6
-7 7 -13 3 -13 -4 0 -3 -6 3 -12 13 -17 167 -311 319 -610 25 -49 49 -88 55
-88 11 0 75 35 196 108 52 32 108 65 125 76 18 10 34 22 37 26 3 4 15 13 28
19 13 7 31 19 40 26 9 7 67 50 127 96 61 45 115 87 121 93 6 6 30 27 53 46 86
69 259 237 356 345 39 43 75 83 80 89 60 64 309 401 337 456 7 14 16 27 19 30
3 3 21 32 40 65 18 33 42 74 51 90 31 55 163 319 187 375 72 171 181 482 181
519 0 10 3 21 7 25 4 3 8 14 10 24 1 9 9 46 18 82 25 104 27 114 30 135 2 11
4 20 5 20 1 0 3 11 6 25 2 14 7 39 10 55 3 17 7 40 9 52 2 13 6 40 9 60 32
191 41 330 41 613 0 256 -8 390 -31 540 -3 19 -8 51 -10 70 -11 74 -13 85 -14
85 -1 0 -3 14 -5 30 -2 17 -13 71 -25 120 -12 50 -23 97 -25 105 -9 42 -56
213 -71 256 -9 27 -18 54 -19 59 -1 6 -5 17 -8 25 -3 8 -22 60 -42 115 -20 55
-47 124 -61 153 -13 29 -24 55 -24 58 0 11 -126 264 -164 329 -22 39 -41 72
-41 75 0 3 -10 19 -23 37 -12 17 -22 34 -22 37 0 6 -50 86 -60 96 -3 3 -11 17
-19 33 -8 15 -18 27 -23 27 -4 0 -8 5 -8 11 0 5 -15 30 -32 54 -18 23 -42 55
-53 71 -11 15 -26 33 -32 40 -7 7 -13 15 -13 18 0 7 -2 9 -112 141 -148 178
-540 555 -577 555 -6 0 -11 4 -11 9 0 5 -34 33 -76 63 -41 29 -81 58 -87 63
-27 23 -137 95 -147 95 -5 0 -10 4 -10 8 0 5 -12 15 -27 23 -15 8 -57 32 -93
53 -88 53 -312 168 -391 201 -35 15 -80 34 -99 42 -103 44 -234 93 -251 93 -9
0 -19 3 -23 7 -3 4 -12 8 -19 9 -7 1 -31 9 -55 18 -23 8 -44 16 -47 16 -3 0
-10 2 -17 4 -21 6 -102 27 -118 30 -8 2 -22 6 -30 9 -8 4 -26 8 -40 11 -14 2
-61 12 -105 21 -104 22 -112 24 -155 30 -20 3 -47 8 -60 11 -14 2 -43 7 -65 9
-22 2 -58 6 -80 9 -22 3 -65 8 -95 12 -60 6 -595 15 -601 10z"/>
<path d="M3005 7512 c-27 -15 -52 -30 -55 -33 -3 -3 -21 -14 -40 -25 -36 -20
-98 -58 -115 -71 -6 -5 -51 -35 -100 -68 -50 -33 -95 -64 -101 -70 -6 -5 -22
-17 -35 -25 -12 -8 -33 -25 -46 -37 -13 -13 -27 -23 -31 -23 -4 0 -15 -8 -23
-17 -9 -10 -31 -29 -49 -43 -53 -41 -120 -100 -208 -185 -46 -44 -88 -81 -93
-83 -5 -2 -9 -7 -9 -11 0 -4 -28 -37 -62 -73 -58 -61 -136 -149 -166 -187 -6
-9 -33 -43 -60 -77 -26 -33 -56 -73 -67 -88 -11 -16 -26 -34 -32 -41 -7 -8
-13 -18 -13 -24 0 -6 -4 -11 -9 -11 -5 0 -11 -8 -15 -17 -3 -10 -19 -36 -36
-58 -16 -22 -51 -76 -77 -120 -26 -44 -50 -82 -53 -85 -6 -6 -22 -37 -89 -165
-25 -49 -50 -93 -54 -96 -5 -3 -9 -10 -9 -15 0 -8 -8 -28 -61 -144 -35 -77
-137 -353 -137 -370 0 -9 -3 -20 -7 -24 -5 -4 -9 -12 -9 -17 -1 -5 -2 -10 -4
-11 -1 -2 -3 -11 -6 -20 -2 -10 -6 -26 -8 -35 -3 -10 -5 -18 -6 -18 -2 0 -3
-3 -35 -130 -14 -55 -28 -113 -31 -129 -2 -16 -7 -33 -9 -37 -3 -4 -7 -24 -10
-45 -3 -22 -7 -50 -10 -64 -7 -32 -14 -76 -19 -115 -3 -16 -7 -50 -10 -75 -11
-82 -15 -114 -23 -200 -9 -103 -9 -570 0 -660 4 -36 9 -87 12 -115 6 -54 12
-99 30 -212 4 -29 41 -210 56 -278 4 -22 16 -65 24 -95 9 -30 18 -63 20 -73 7
-31 75 -240 84 -262 5 -11 18 -45 29 -75 11 -30 31 -80 45 -110 13 -30 33 -76
43 -102 10 -27 22 -48 27 -48 4 0 7 -7 7 -15 0 -17 115 -242 136 -266 8 -8 14
-19 14 -23 0 -9 69 -127 79 -136 3 -3 12 -17 20 -32 8 -16 18 -28 23 -28 4 0
8 -5 8 -11 0 -9 75 -125 90 -139 3 -3 17 -21 30 -40 13 -19 29 -40 35 -47 5
-7 15 -18 20 -25 32 -42 145 -179 175 -213 62 -69 305 -309 355 -350 27 -22
68 -56 91 -75 51 -43 65 -54 139 -110 33 -25 63 -49 67 -55 5 -7 8 -7 8 0 0 7
3 7 8 0 17 -24 250 -173 357 -229 22 -12 51 -29 64 -38 13 -9 28 -15 32 -12 4
2 10 0 14 -6 10 -16 296 -147 415 -190 19 -6 44 -16 55 -20 42 -18 292 -97
329 -104 6 -2 29 -8 51 -14 22 -6 51 -13 65 -16 14 -3 34 -7 45 -9 65 -15 179
-38 212 -42 21 -3 52 -7 68 -10 84 -13 104 -16 145 -20 256 -26 676 -26 860
-1 14 2 50 7 80 11 98 13 105 14 140 20 19 4 46 9 60 10 14 2 25 4 25 5 0 1
14 4 30 6 110 18 467 117 563 156 15 6 32 12 37 13 13 3 102 40 165 67 25 11
50 21 56 22 6 1 23 9 37 19 15 9 30 17 34 17 4 0 52 21 105 47 68 33 98 53 98
66 0 9 -4 17 -10 17 -5 0 -10 5 -10 12 0 16 -81 172 -92 176 -4 2 -8 11 -8 21
0 9 -4 21 -10 27 -5 5 -32 54 -60 109 -91 176 -115 220 -122 223 -5 2 -8 8 -8
13 0 11 -20 53 -72 149 -19 36 -61 115 -93 175 -31 61 -66 125 -77 143 -11 17
-16 32 -12 32 4 0 0 8 -8 18 -8 9 -22 31 -30 47 -13 28 -77 149 -191 365 -28
52 -64 122 -80 155 -16 33 -35 63 -41 67 -6 4 -7 8 -2 8 5 0 4 6 -2 13 -6 6
-43 75 -83 152 -40 77 -90 172 -110 210 -21 39 -52 99 -70 135 -18 36 -36 67
-39 70 -3 3 -23 41 -44 85 -22 44 -42 82 -45 85 -8 6 -28 52 -29 64 0 5 -4 12
-9 15 -4 3 -27 42 -49 86 -52 100 -141 270 -302 575 -30 58 -59 111 -65 118
-5 6 -6 12 -2 12 5 0 1 8 -7 18 -8 9 -30 46 -48 82 -17 35 -49 96 -69 135 -21
38 -66 124 -101 190 -34 66 -67 124 -71 130 -5 5 -9 17 -9 27 0 10 -4 18 -9
18 -5 0 -12 11 -15 25 -4 14 -11 25 -16 25 -6 0 -10 8 -10 18 0 10 -4 22 -9
28 -9 9 -130 237 -160 302 -8 17 -19 32 -23 32 -4 0 -8 8 -8 18 0 10 -4 22 -9
28 -5 5 -33 56 -64 114 -30 58 -83 159 -118 225 -34 66 -81 156 -103 200 -23
44 -43 82 -46 85 -3 3 -24 41 -46 85 -47 91 -115 220 -200 380 -32 61 -74 142
-93 180 -20 39 -38 72 -41 75 -3 3 -22 39 -43 80 -21 41 -51 99 -67 128 -16
28 -25 52 -22 52 4 0 2 4 -3 8 -6 4 -25 34 -42 67 -105 203 -136 261 -145 273
-6 6 -7 12 -4 12 4 0 -1 12 -12 28 -10 15 -31 52 -47 82 -15 30 -45 88 -66
128 -20 40 -42 79 -49 87 -6 8 -13 20 -14 28 -1 8 -8 25 -17 38 -8 13 -26 47
-39 74 -14 28 -27 52 -30 55 -3 3 -17 31 -32 63 -15 31 -33 57 -40 56 -7 0
-35 -12 -63 -27z"/>
</g>
</svg>
