<svg width="39" height="39" viewBox="0 0 39 39" fill="none" xmlns="http://www.w3.org/2000/svg">
<path d="M36.3055 2.69614C32.7099 -0.899424 26.8589 -0.898005 23.2627 2.69614L16.7412 9.21755C16.1872 9.77164 16.1872 10.6698 16.7412 11.2239C17.2953 11.778 18.1935 11.778 18.7476 11.2239L25.269 4.70251C26.4687 3.50352 28.0721 2.84229 29.7833 2.84229C31.4953 2.84229 33.0987 3.50352 34.2984 4.70322C35.4981 5.90293 36.1593 7.50632 36.1593 9.21826C36.1593 10.9295 35.4981 12.5329 34.2984 13.7326L25.7713 22.2618C23.2811 24.7506 19.2308 24.7506 16.7405 22.2618C16.1864 21.7077 15.2883 21.7077 14.7342 22.2618C14.1801 22.8159 14.1801 23.7148 14.7342 24.2681C16.532 26.0659 18.8938 26.9648 21.2556 26.9648C23.6174 26.9648 25.9792 26.0659 27.777 24.2681L36.3055 15.7397C38.0415 14.0043 38.9979 11.6879 38.9979 9.21826C38.9979 6.7479 38.0415 4.43221 36.3055 2.69614Z" fill="#333333"/>
<path d="M19.2492 28.7825L13.731 34.3008C12.5313 35.5005 10.9279 36.1617 9.21596 36.1617C7.50473 36.1617 5.90063 35.5005 4.70092 34.3008C2.21141 31.8112 2.21141 27.7602 4.70092 25.2707L12.7278 17.2438C13.9275 16.0448 15.5309 15.3836 17.2428 15.3836C18.9541 15.3836 20.5575 16.0448 21.7572 17.2438C22.3113 17.7979 23.2094 17.7979 23.7635 17.2438C24.3176 16.6897 24.3176 15.7915 23.7635 15.2374C20.1687 11.6426 14.3177 11.6419 10.7207 15.2374L2.69385 23.265C0.958495 25.0004 0.00213623 27.3168 0.00213623 29.7864C0.00213623 32.2554 0.958495 34.5718 2.69456 36.3071C4.42991 38.0432 6.74631 38.9995 9.21525 38.9995C11.6849 38.9995 14.0013 38.0432 15.7367 36.3071L21.2549 30.7889C21.809 30.2348 21.809 29.3366 21.2549 28.7825C20.7008 28.2284 19.8033 28.2284 19.2492 28.7825Z" fill="#333333"/>
</svg>
